{
  "asset": {
    "generator": "Khronos glTF Blender I/O v1.7.33",
    "version": "2.0"
  },
  "scene": 0,
  "scenes": [
    {
      "name": "Scene",
      "nodes": [0]
    }
  ],
  "nodes": [
    {
      "mesh": 0,
      "name": "Robot",
      "rotation": [0.7071068286895752, 0, 0, 0.7071067094802856],
      "scale": [
        0.009999999776482582, 0.009999999776482582, 0.009999999776482582
      ]
    }
  ],
  "materials": [
    {
      "doubleSided": true,
      "name": "Gray",
      "pbrMetallicRoughness": {
        "metallicFactor": 0.800000011920929,
        "roughnessFactor": 0.44090908765792847
      }
    },
    {
      "doubleSided": true,
      "name": "Black",
      "pbrMetallicRoughness": {
        "baseColorFactor": [0, 0, 0, 1],
        "metallicFactor": 0,
        "roughnessFactor": 0.800000011920929
      }
    },
    {
      "doubleSided": true,
      "name": "BlackGlass",
      "pbrMetallicRoughness": {
        "baseColorFactor": [
          0.02500000037252903, 0.02500000037252903, 0.02500000037252903, 1
        ],
        "roughnessFactor": 0.30000001192092896
      }
    }
  ],
  "meshes": [
    {
      "name": "geo1.003",
      "primitives": [
        {
          "attributes": {
            "POSITION": 0,
            "NORMAL": 1,
            "TEXCOORD_0": 2
          },
          "indices": 3,
          "material": 0
        },
        {
          "attributes": {
            "POSITION": 4,
            "NORMAL": 5,
            "TEXCOORD_0": 6
          },
          "indices": 7,
          "material": 1
        },
        {
          "attributes": {
            "POSITION": 8,
            "NORMAL": 9,
            "TEXCOORD_0": 10
          },
          "indices": 11,
          "material": 2
        }
      ]
    }
  ],
  "accessors": [
    {
      "bufferView": 0,
      "componentType": 5126,
      "count": 29378,
      "max": [5.8498663902282715, 5.187215805053711, 0],
      "min": [-5.8498663902282715, -5.691025733947754, -23.996000289916992],
      "type": "VEC3"
    },
    {
      "bufferView": 1,
      "componentType": 5126,
      "count": 29378,
      "type": "VEC3"
    },
    {
      "bufferView": 2,
      "componentType": 5126,
      "count": 29378,
      "type": "VEC2"
    },
    {
      "bufferView": 3,
      "componentType": 5123,
      "count": 140373,
      "type": "SCALAR"
    },
    {
      "bufferView": 4,
      "componentType": 5126,
      "count": 5122,
      "max": [5.2092671394348145, 4.82742166519165, -0.7271881103515625],
      "min": [-5.2092671394348145, -4.435778617858887, -22.986305236816406],
      "type": "VEC3"
    },
    {
      "bufferView": 5,
      "componentType": 5126,
      "count": 5122,
      "type": "VEC3"
    },
    {
      "bufferView": 6,
      "componentType": 5126,
      "count": 5122,
      "type": "VEC2"
    },
    {
      "bufferView": 7,
      "componentType": 5123,
      "count": 23628,
      "type": "SCALAR"
    },
    {
      "bufferView": 8,
      "componentType": 5126,
      "count": 1427,
      "max": [3.8377392292022705, 6.086312770843506, -15.124889373779297],
      "min": [-3.8377394676208496, 3.7425777912139893, -22.722965240478516],
      "type": "VEC3"
    },
    {
      "bufferView": 9,
      "componentType": 5126,
      "count": 1427,
      "type": "VEC3"
    },
    {
      "bufferView": 10,
      "componentType": 5126,
      "count": 1427,
      "type": "VEC2"
    },
    {
      "bufferView": 11,
      "componentType": 5123,
      "count": 6912,
      "type": "SCALAR"
    }
  ],
  "bufferViews": [
    {
      "buffer": 0,
      "byteLength": 352536,
      "byteOffset": 0
    },
    {
      "buffer": 0,
      "byteLength": 352536,
      "byteOffset": 352536
    },
    {
      "buffer": 0,
      "byteLength": 235024,
      "byteOffset": 705072
    },
    {
      "buffer": 0,
      "byteLength": 280746,
      "byteOffset": 940096
    },
    {
      "buffer": 0,
      "byteLength": 61464,
      "byteOffset": 1220844
    },
    {
      "buffer": 0,
      "byteLength": 61464,
      "byteOffset": 1282308
    },
    {
      "buffer": 0,
      "byteLength": 40976,
      "byteOffset": 1343772
    },
    {
      "buffer": 0,
      "byteLength": 47256,
      "byteOffset": 1384748
    },
    {
      "buffer": 0,
      "byteLength": 17124,
      "byteOffset": 1432004
    },
    {
      "buffer": 0,
      "byteLength": 17124,
      "byteOffset": 1449128
    },
    {
      "buffer": 0,
      "byteLength": 11416,
      "byteOffset": 1466252
    },
    {
      "buffer": 0,
      "byteLength": 13824,
      "byteOffset": 1477668
    }
  ],
  "buffers": [
    {
      "byteLength": 1491492,
      "uri": "data:application/octet-stream;base64,"
    }
  ]
}
